<?xml version="1.0" encoding="utf-8"?>
<!-- Generator: Adobe Illustrator 27.1.1, SVG Export Plug-In . SVG Version: 6.00 Build 0)  -->
<svg version="1.1" id="Layer_1" xmlns="http://www.w3.org/2000/svg" xmlns:xlink="http://www.w3.org/1999/xlink" x="0px" y="0px"
	 viewBox="0 0 595.28 841.89" style="enable-background:new 0 0 595.28 841.89;" xml:space="preserve">
<style type="text/css">
	.st0{fill:#5A4017;}
	.st1{fill:#8CC640;}
	.st2{fill:url(#SVGID_1_);}
	.st3{fill:url(#SVGID_00000083779549990957166960000015513560384591293073_);}
	.st4{fill:url(#SVGID_00000111154529350606249230000017497471888529795201_);}
</style>
<g>
	<path class="st0" d="M577.8,371.29l-171.72-171.7c-17.42-17.42-40.57-27.02-65.2-27.02c-24.64,0-47.8,9.6-65.22,27.02l-29.7,29.69
		v-41.22h-73.88v115.09l-68.13,68.14c-5.53,5.54-5.53,14.51,0,20.05c5.54,5.54,14.51,5.54,20.05,0l171.72-171.71
		c12.07-12.07,28.11-18.7,45.16-18.7c17.06,0,33.1,6.64,45.17,18.7l171.72,171.71c5.54,5.54,14.51,5.54,20.05,0
		C583.33,385.8,583.33,376.83,577.8,371.29z"/>
	<path class="st1" d="M381.27,241.34c-10.79-10.79-25.14-16.73-40.4-16.73c-15.26,0-29.61,5.94-40.41,16.73L166.11,375.7v154.06
		c0,16.89,13.69,30.58,30.58,30.58h74.48v-91.06c0-11.19,9.07-20.27,20.27-20.27h98.88c11.2,0,20.27,9.07,20.27,20.27v91.06h74.48
		c16.89,0,30.58-13.69,30.58-30.58V375.7L381.27,241.34z"/>
	<linearGradient id="SVGID_1_" gradientUnits="userSpaceOnUse" x1="340.8708" y1="539.8369" x2="340.8708" y2="245.1118">
		<stop  offset="0.7809" style="stop-color:#8DC640"/>
		<stop  offset="0.9494" style="stop-color:#CFE28E"/>
		<stop  offset="1" style="stop-color:#E3E98D"/>
	</linearGradient>
	<path class="st2" d="M314.96,255.84c0,0-117.39,117.39-128.35,128.35c0,15.16,0,145.57,0,145.57c0,5.55,4.52,10.08,10.08,10.08
		c0,0,32.44,0,53.98,0c0-24.62,0-70.56,0-70.56c0-22.48,18.29-40.77,40.77-40.77h98.88c22.48,0,40.77,18.29,40.77,40.77
		c0,0,0,45.94,0,70.56c21.54,0,53.98,0,53.98,0c5.56,0,10.08-4.52,10.08-10.08c0,0,0-130.4,0-145.57
		c-10.96-10.96-128.36-128.36-128.36-128.36c-6.92-6.92-16.11-10.73-25.9-10.73C331.08,245.11,321.88,248.92,314.96,255.84z"/>
	
		<linearGradient id="SVGID_00000162332337194481061400000016384399143342511549_" gradientUnits="userSpaceOnUse" x1="340.8708" y1="385.9682" x2="340.8708" y2="539.8369">
		<stop  offset="0.4831" style="stop-color:#8DC640"/>
		<stop  offset="0.9494" style="stop-color:#CFE28E"/>
		<stop  offset="1" style="stop-color:#E3E98D"/>
	</linearGradient>
	<path style="fill:url(#SVGID_00000162332337194481061400000016384399143342511549_);" d="M186.61,385.97c0,21.49,0,143.79,0,143.79
		c0,5.55,4.52,10.08,10.08,10.08c0,0,32.44,0,53.98,0c0-24.62,0-70.56,0-70.56c0-22.48,18.29-40.77,40.77-40.77h98.88
		c22.48,0,40.77,18.29,40.77,40.77c0,0,0,45.94,0,70.56c21.54,0,53.98,0,53.98,0c5.56,0,10.08-4.52,10.08-10.08
		c0,0,0-122.3,0-143.79H186.61z"/>
	
		<linearGradient id="SVGID_00000175309058390301275100000001954350103673548443_" gradientUnits="userSpaceOnUse" x1="189.261" y1="196.7808" x2="221.2814" y2="265.4486">
		<stop  offset="0.3652" style="stop-color:#947B4C"/>
		<stop  offset="0.5174" style="stop-color:#876D3F"/>
		<stop  offset="0.8059" style="stop-color:#694F23"/>
		<stop  offset="0.9551" style="stop-color:#593F17"/>
	</linearGradient>
	<polygon style="fill:url(#SVGID_00000175309058390301275100000001954350103673548443_);" points="198.4,212.84 232.75,212.84 
		232.75,199.27 183.93,199.27 183.93,276.12 198.4,276.12 	"/>
</g>
</svg>
